#!OML:ASF I:\Actors\actors\Patient Classification 2\Patient 1\Session 1\actor1.ASF
:FULLY-SPECIFIED
:DEGREES
166
root -0.443693 18.7623 5.48438 5.39208 6.40293 1.10282
lowerback 6.61226 3.17438 0.395575
upperback -0.350044 4.36289 2.37809
thorax -4.22342 2.18262 1.79217
lowerneck -11.8333 -7.41941 -7.99501
upperneck 17.0411 -9.71108 5.76764
head 7.88928 -4.61649 2.16429
rclavicle 2.36554e-014 1.35174e-014
rhumerus -29.511 16.685 -74.4861
rradius 72.9891
rwrist -19.7983
rhand -1.50107 -41.1766
rfingers 7.12502
rthumb 24.1518 -69.6762
lclavicle 2.36554e-014 1.35174e-014
lhumerus -48.3584 -12.3092 96.7543
lradius 56.167
lwrist 9.91256
lhand -5.16441 -21.6651
lfingers 7.12502
lthumb 20.6354 7.25796
rfemur 0 0 0
rtibia 0
rfoot 0 0
rtoes 0
lfemur -11.1554 -7.22925 -15.0726
ltibia 21.7659
lfoot -18.5693 8.63363
ltoes -55.6343
167
root -0.444928 18.7648 5.4613 5.37049 6.39807 1.09127
lowerback 6.9298 3.29214 0.587311
upperback -0.261696 4.54352 2.49175
thorax -4.31059 2.26816 1.76814
lowerneck -11.7157 -7.53092 -8.29817
upperneck 16.8356 -9.81785 5.84393
head 7.82876 -4.68281 2.22948
rclavicle 2.52457e-014 2.8625e-014
rhumerus -25.7822 14.6372 -73.531
rradius 73.7217
rwrist -24.8874
rhand -0.135951 -42.8074
rfingers 7.12502
rthumb 25.4601 -71.1268
lclavicle 2.52457e-014 2.8625e-014
lhumerus -48.4386 -12.1195 96.7131
lradius 55.927
lwrist 9.69013
lhand -5.13374 -21.7479
lfingers 7.12502
lthumb 20.6649 7.17197
rfemur 0 0 0
rtibia 0
rfoot 0 0
rtoes 0
lfemur -11.2165 -7.25065 -15.0513
ltibia 21.7749
lfoot -18.5035 8.65589
ltoes -55.5227
168
root -0.448014 18.7693 5.43682 5.46279 5.98179 1.03802
lowerback 7.13606 3.55707 0.747207
upperback -0.182861 4.91621 2.59588
thorax -4.35195 2.44968 1.73605
lowerneck -11.7485 -7.60096 -8.42204
upperneck 16.7512 -9.844 5.64875
head 7.80538 -4.7199 2.18119
rclavicle -3.79679e-014 -1.11319e-014
rhumerus -22.0778 12.5337 -73.0241
rradius 73.9243
rwrist -30.0632
rhand 0.135072 -43.7041
rfingers 7.12502
rthumb 25.7197 -71.9862
lclavicle -3.79679e-014 -1.11319e-014
lhumerus -48.465 -11.9698 96.6581
lradius 55.688
lwrist 9.5192
lhand -5.04955 -21.753
lfingers 7.12502
lthumb 20.7458 7.15806
rfemur 0 0 0
rtibia 0
rfoot 0 0
rtoes 0
lfemur -11.3409 -7.09663 -15.0145
ltibia 21.787
lfoot -18.5252 8.89366
ltoes -55.4508
169
root -0.451934 18.7746 5.41026 5.62233 5.24431 0.947687
lowerback 7.27937 3.91385 0.919126
upperback -0.111576 5.40962 2.6616
thorax -4.36336 2.69035 1.64672
lowerneck -11.8843 -7.60374 -8.11173
upperneck 16.775 -9.76697 4.98038
head 7.78048 -4.72104 1.91851
rclavicle -2.40529e-014 -3.81667e-014
rhumerus -18.4128 10.4489 -73.0406
rradius 73.3406
rwrist -34.9891
rhand 0.0944031 -44.0306
rfingers 7.12502
rthumb 25.6808 -72.3183
lclavicle -2.40529e-014 -3.81667e-014
lhumerus -48.5054 -11.826 96.5195
lradius 55.5248
lwrist 9.34245
lhand -4.93687 -21.707
lfingers 7.12502
lthumb 20.8541 7.19214
rfemur 0 0 0
rtibia 0
rfoot 0 0
rtoes 0
lfemur -11.497 -6.81507 -14.9693
ltibia 21.8138
lfoot -18.6135 9.36491
ltoes -55.4403
170
root -0.456822 18.7779 5.38826 5.67058 4.73603 0.861058
lowerback 7.44777 4.17094 1.12383
upperback -0.0129095 5.77279 2.72483
thorax -4.35144 2.86572 1.54974
lowerneck -11.8483 -7.63955 -7.86784
upperneck 16.649 -9.75994 4.46387
head 7.69248 -4.75008 1.71587
rclavicle -5.80451e-014 -2.8625e-014
rhumerus -14.7433 8.42299 -73.3282
rradius 72.154
rwrist -40.3922
rhand -0.373512 -45.5746
rfingers 7.12502
rthumb 25.2326 -73.9263
lclavicle -5.80451e-014 -2.8625e-014
lhumerus -48.5661 -11.6624 96.34
lradius 55.3695
lwrist 9.21989
lhand -4.92154 -21.7094
lfingers 7.12502
lthumb 20.8688 7.18817
rfemur 0 0 0
rtibia 0
rfoot 0 0
rtoes 0
lfemur -11.5515 -6.5463 -14.9154
ltibia 21.8443
lfoot -18.6303 9.69758
ltoes -55.5857
171
root -0.458904 18.7784 5.37658 5.56098 4.87471 0.895522
lowerback 7.62576 4.18761 1.38138
upperback 0.108544 5.81836 2.74904
thorax -4.30274 2.88252 1.41937
lowerneck -11.7079 -7.70992 -7.70725
upperneck 16.5389 -9.827 4.11892
head 7.60944 -4.80559 1.57774
rclavicle -3.02153e-014 3.97569e-014
rhumerus -11.115 6.67779 -73.6831
rradius 70.4783
rwrist -44.8645
rhand -1.85852 -46.6992
rfingers 7.12502
rthumb 23.8091 -75.2438
lclavicle -3.02153e-014 3.97569e-014
lhumerus -48.6955 -11.4862 96.1347
lradius 55.1998
lwrist 9.2074
lhand -4.98131 -21.7245
lfingers 7.12502
lthumb 20.8114 7.17934
rfemur 0 0 0
rtibia 0
rfoot 0 0
rtoes 0
lfemur -11.5042 -6.48205 -14.9454
ltibia 21.8717
lfoot -18.4823 9.58449
ltoes -55.756
